<svg width="20" height="20" viewBox="0 0 20 20" fill="none" xmlns="http://www.w3.org/2000/svg">
<path d="M11.361 12.1019L12.1518 9.15047C12.5886 7.52043 11.6213 5.84496 9.99123 5.40819C8.3612 4.97142 6.68572 5.93876 6.24896 7.56879L4.27187 14.9474C3.8351 16.5774 4.80243 18.2529 6.43247 18.6897C7.18099 18.8902 7.93909 18.7947 8.58243 18.4749C8.97724 18.2787 9.32882 17.9979 9.60845 17.6493M9.2004 8.35963L8.40956 11.3111C7.97279 12.9411 8.94013 14.6166 10.5702 15.0533C12.2002 15.4901 13.8757 14.5228 14.3124 12.8927L16.2895 5.51414C16.7263 3.88411 15.759 2.20863 14.1289 1.77187C13.3804 1.5713 12.6223 1.66682 11.979 1.98662C11.5842 2.18289 11.2326 2.46362 10.9529 2.81223" stroke="#023047" stroke-width="1.5" stroke-linecap="round"/>
</svg>
