<svg width="60" height="60" viewBox="0 0 60 60" fill="none" xmlns="http://www.w3.org/2000/svg">
<path d="M48.0446 19.8461L47.8099 21.3276H47.8099L48.0446 19.8461ZM37.6539 9.45543L36.1724 9.69008V9.69008L37.6539 9.45543ZM12.6527 52.6127L13.5344 51.3992L12.6527 52.6127ZM9.88729 49.8473L11.1008 48.9656L9.88729 49.8473ZM50.1127 49.8473L48.8992 48.9656L50.1127 49.8473ZM47.3473 52.6127L46.4656 51.3992L47.3473 52.6127ZM47.3473 7.38729L48.229 6.17376L47.3473 7.38729ZM50.1127 10.1527L51.3262 9.27101L50.1127 10.1527ZM12.6527 7.38729L13.5344 8.60081L12.6527 7.38729ZM9.88729 10.1527L11.1008 11.0344L9.88729 10.1527ZM37.5 5.07232L37.5514 3.5732L37.5 5.07232ZM52.4277 20L53.9268 19.9486L52.4277 20ZM28.5 42.5C28.5 43.3284 29.1716 44 30 44C30.8284 44 31.5 43.3284 31.5 42.5H28.5ZM18.9346 29.4441C18.3515 30.0325 18.3557 30.9822 18.9441 31.5654C19.5325 32.1485 20.4822 32.1443 21.0654 31.5559L18.9346 29.4441ZM23.4946 26.9741L24.56 28.03L23.4946 26.9741ZM36.5054 26.9741L35.44 28.03L36.5054 26.9741ZM38.9346 31.5559C39.5178 32.1443 40.4675 32.1485 41.0559 31.5654C41.6443 30.9822 41.6486 30.0325 41.0654 29.4441L38.9346 31.5559ZM29.3733 22.5398L29.1837 21.0518L29.1837 21.0518L29.3733 22.5398ZM30.6267 22.5398L30.8163 21.0518L30.8163 21.0518L30.6267 22.5398ZM30 22.5V21V22.5ZM48.2792 18.3646C43.5724 17.6191 39.8809 13.9276 39.1354 9.22078L36.1724 9.69008C37.1212 15.6806 41.8194 20.3788 47.8099 21.3276L48.2792 18.3646ZM51 27.5V32.5H54V27.5H51ZM9 32.5V27.5H6V32.5H9ZM30 53.5C25.2794 53.5 21.8595 53.4979 19.2047 53.2103C16.578 52.9257 14.879 52.3761 13.5344 51.3992L11.771 53.8262C13.7122 55.2366 15.9996 55.8806 18.8816 56.1929C21.7354 56.5021 25.3462 56.5 30 56.5V53.5ZM6 32.5C6 37.1538 5.99794 40.7646 6.30714 43.6184C6.61938 46.5004 7.26338 48.7878 8.67376 50.729L11.1008 48.9656C10.1239 47.621 9.57427 45.922 9.28968 43.2953C9.00206 40.6405 9 37.2206 9 32.5H6ZM13.5344 51.3992C12.6005 50.7207 11.7793 49.8995 11.1008 48.9656L8.67376 50.729C9.53728 51.9175 10.5825 52.9627 11.771 53.8262L13.5344 51.3992ZM51 32.5C51 37.2206 50.9979 40.6405 50.7103 43.2953C50.4257 45.922 49.8761 47.621 48.8992 48.9656L51.3262 50.729C52.7366 48.7878 53.3806 46.5004 53.6929 43.6184C54.0021 40.7646 54 37.1538 54 32.5H51ZM30 56.5C34.6538 56.5 38.2646 56.5021 41.1184 56.1929C44.0004 55.8806 46.2878 55.2366 48.229 53.8262L46.4656 51.3992C45.121 52.3761 43.422 52.9257 40.7953 53.2103C38.1405 53.4979 34.7206 53.5 30 53.5V56.5ZM48.8992 48.9656C48.2207 49.8995 47.3995 50.7207 46.4656 51.3992L48.229 53.8262C49.4175 52.9627 50.4627 51.9175 51.3262 50.729L48.8992 48.9656ZM46.4656 8.60081C47.3995 9.27929 48.2207 10.1005 48.8992 11.0344L51.3262 9.27101C50.4627 8.08248 49.4175 7.03728 48.229 6.17376L46.4656 8.60081ZM30 3.5C25.3462 3.5 21.7354 3.49794 18.8816 3.80714C15.9996 4.11938 13.7122 4.76338 11.771 6.17376L13.5344 8.60081C14.879 7.62391 16.578 7.07427 19.2047 6.78968C21.8595 6.50206 25.2794 6.5 30 6.5V3.5ZM9 27.5C9 22.7794 9.00206 19.3595 9.28968 16.7047C9.57427 14.078 10.1239 12.379 11.1008 11.0344L8.67376 9.27101C7.26338 11.2122 6.61938 13.4996 6.30714 16.3816C5.99794 19.2354 6 22.8462 6 27.5H9ZM11.771 6.17376C10.5825 7.03728 9.53728 8.08248 8.67376 9.27101L11.1008 11.0344C11.7793 10.1005 12.6005 9.27929 13.5344 8.60081L11.771 6.17376ZM30 6.5C32.9306 6.5 35.3689 6.50019 37.4486 6.57144L37.5514 3.5732C35.4093 3.49981 32.914 3.5 30 3.5V6.5ZM37.4486 6.57144C42.0906 6.73048 44.6022 7.24697 46.4656 8.60081L48.229 6.17376C45.5694 4.24143 42.2303 3.73351 37.5514 3.5732L37.4486 6.57144ZM36 5.07233C36 7.29176 35.997 8.58307 36.1724 9.69008L39.1354 9.22078C39.0062 8.40474 39 7.40169 39 5.07231L36 5.07233ZM54 27.5C54 24.586 54.0002 22.0907 53.9268 19.9486L50.9286 20.0514C50.9998 22.1311 51 24.5694 51 27.5H54ZM53.9268 19.9486C53.7665 15.2697 53.2586 11.9306 51.3262 9.27101L48.8992 11.0344C50.253 12.8978 50.7695 15.4094 50.9286 20.0514L53.9268 19.9486ZM52.4277 18.5C50.0983 18.5 49.0953 18.4938 48.2792 18.3646L47.8099 21.3276C48.9169 21.503 50.2082 21.5 52.4277 21.5L52.4277 18.5ZM31.5 42.5V24.5H28.5V42.5H31.5ZM21.0654 31.5559L24.56 28.03L22.4292 25.9181L18.9346 29.4441L21.0654 31.5559ZM35.44 28.03L38.9346 31.5559L41.0654 29.4441L37.5708 25.9181L35.44 28.03ZM24.56 28.03C25.9783 26.599 26.9544 25.6174 27.7814 24.9532C28.5848 24.308 29.1008 24.0866 29.563 24.0277L29.1837 21.0518C27.9475 21.2094 26.9176 21.7993 25.9029 22.6141C24.9119 23.41 23.7978 24.5373 22.4292 25.9181L24.56 28.03ZM37.5708 25.9181C36.2022 24.5373 35.0881 23.41 34.0971 22.6141C33.0824 21.7993 32.0526 21.2094 30.8163 21.0518L30.437 24.0277C30.8992 24.0866 31.4152 24.308 32.2186 24.9532C33.0456 25.6174 34.0217 26.599 35.44 28.03L37.5708 25.9181ZM29.563 24.0277C29.7081 24.0092 29.8541 24 30 24V21C29.7273 21 29.4547 21.0173 29.1837 21.0518L29.563 24.0277ZM30 24C30.146 24 30.2919 24.0092 30.437 24.0277L30.8163 21.0518C30.5453 21.0173 30.2727 21 30 21V24ZM31.5 24.5V22.5H28.5V24.5H31.5Z" fill="#023047"/>
</svg>
