<svg width="30" height="30" viewBox="0 0 30 30" fill="none" xmlns="http://www.w3.org/2000/svg">
<path d="M19.25 11.25C19.25 13.5972 17.3472 15.5 15 15.5V17C18.1756 17 20.75 14.4256 20.75 11.25H19.25ZM15 15.5C12.6528 15.5 10.75 13.5972 10.75 11.25H9.25C9.25 14.4256 11.8244 17 15 17V15.5ZM10.75 11.25C10.75 8.90279 12.6528 7 15 7V5.5C11.8244 5.5 9.25 8.07436 9.25 11.25H10.75ZM15 7C17.3472 7 19.25 8.90279 19.25 11.25H20.75C20.75 8.07436 18.1756 5.5 15 5.5V7ZM11.25 20.75H18.75V19.25H11.25V20.75ZM3.25 15C3.25 8.51065 8.51065 3.25 15 3.25V1.75C7.68223 1.75 1.75 7.68223 1.75 15H3.25ZM15 3.25C21.4893 3.25 26.75 8.51065 26.75 15H28.25C28.25 7.68223 22.3178 1.75 15 1.75V3.25ZM26.75 15C26.75 18.3323 25.3639 21.3395 23.1347 23.4788L24.1733 24.561C26.685 22.1506 28.25 18.7574 28.25 15H26.75ZM23.1347 23.4788C21.0228 25.5056 18.1575 26.75 15 26.75V28.25C18.5599 28.25 21.7933 26.8451 24.1733 24.561L23.1347 23.4788ZM18.75 20.75C20.8112 20.75 22.5312 22.2181 22.9184 24.1661L24.3896 23.8737C23.8657 21.2374 21.5407 19.25 18.75 19.25V20.75ZM15 26.75C11.8425 26.75 8.97724 25.5056 6.86532 23.4788L5.82671 24.561C8.20672 26.8451 11.4401 28.25 15 28.25V26.75ZM6.86532 23.4788C4.63615 21.3395 3.25 18.3323 3.25 15H1.75C1.75 18.7574 3.31501 22.1506 5.82671 24.561L6.86532 23.4788ZM11.25 19.25C8.45925 19.25 6.13435 21.2374 5.6104 23.8737L7.08163 24.1661C7.46877 22.2181 9.18877 20.75 11.25 20.75V19.25Z" fill="#023047"/>
</svg>
