<svg width="153" height="40" viewBox="0 0 153 40" fill="none" xmlns="http://www.w3.org/2000/svg">
<path d="M20.8555 6.01514C13.9478 6.01514 8.3457 11.7493 8.3457 18.8198C8.3457 25.8903 13.9447 31.6245 20.8555 31.6245C22.8309 31.6245 24.6982 31.1538 26.3588 30.3197V25.9061C24.8495 27.1383 22.9358 27.8744 20.8555 27.8744C15.9695 27.8744 12.0094 23.821 12.0094 18.8198C12.0094 13.8186 15.9695 9.76524 20.8555 9.76524C25.6427 9.76524 29.5379 13.6575 29.6922 18.5165L29.6984 18.507V29.2297L33.3621 31.6213V18.8198C33.3621 11.7493 27.7632 6.01514 20.8555 6.01514Z" fill="#FB8500"/>
<path d="M24.504 21.0251C25.6939 21.0251 26.6584 20.0378 26.6584 18.8199C26.6584 17.602 25.6939 16.6147 24.504 16.6147C23.3142 16.6147 22.3496 17.602 22.3496 18.8199C22.3496 20.0378 23.3142 21.0251 24.504 21.0251Z" fill="#219EBC"/>
<path d="M17.2042 21.0251C18.3941 21.0251 19.3586 20.0378 19.3586 18.8199C19.3586 17.602 18.3941 16.6147 17.2042 16.6147C16.0144 16.6147 15.0498 17.602 15.0498 18.8199C15.0498 20.0378 16.0144 21.0251 17.2042 21.0251Z" fill="#219EBC"/>
<path d="M65.885 31.6246C64.0238 31.6246 63.7367 31.6246 62.1688 31.6246C58.2674 31.6246 56.042 29.4226 56.042 25.4292V9.5H59.5421V13.7019H65.3294L63.175 17.1582H59.5421V25.2807C59.5421 27.407 60.6008 28.6012 62.57 28.6012C63.0546 28.6012 63.9806 28.6012 63.9806 28.6012L65.885 31.6246Z" fill="#219EBC"/>
<path d="M112.215 22.4057L108.202 26.2127V31.6246H104.702V6.1416H108.202V21.6949L118.74 11.841H122.968L114.838 20.0141L123.771 31.6214H119.468L112.215 22.4057Z" fill="#219EBC"/>
<path d="M90.531 6.84318C88.0279 5.63316 84.9166 5.73742 82.6665 7.31392C81.4165 8.18904 80.7683 9.81925 80.6572 11.7085C80.6572 11.718 80.6572 11.7243 80.6572 11.7338C80.6479 11.9202 80.6387 12.1097 80.6387 12.2993V19.7237V31.6248H84.1388V22.3048V19.0855V17.1583H87.5556L89.7162 13.702H84.0647V12.3372C84.0647 10.5427 84.7253 9.42433 86.0216 9.02942C86.1019 9.00415 86.1883 8.98203 86.2747 8.96307C86.287 8.95992 86.3025 8.95676 86.3148 8.9536C86.392 8.9378 86.4722 8.922 86.5525 8.91253C86.5895 8.90621 86.6296 8.90305 86.6698 8.89989C86.7315 8.89357 86.7932 8.88409 86.8581 8.88093C86.9692 8.87461 87.0834 8.86829 87.2007 8.86829C87.3241 8.86829 87.4507 8.87461 87.571 8.88409C87.6266 8.89041 87.6822 8.89989 87.7377 8.90621C87.8025 8.91568 87.8674 8.922 87.9322 8.93148C88.0063 8.94412 88.0803 8.96307 88.1544 8.97887C89.4199 9.29164 90.5064 10.3247 90.5341 10.3469L90.531 6.84318Z" fill="#219EBC"/>
<path d="M49.2178 13.7116C49.082 13.7053 48.9462 13.7021 48.8073 13.7021C43.449 13.7021 39.0908 18.1631 39.0908 23.6477V31.6217H42.4397V23.5718L42.4459 23.4297C42.557 19.9576 45.2608 17.2343 48.6313 17.1395H49.4462L51.5821 13.7116H49.2178Z" fill="#219EBC"/>
<path d="M135.033 11.7305C129.675 11.7305 125.316 16.1914 125.316 21.676C125.316 27.1605 129.675 31.6215 135.033 31.6215C136.385 31.6215 137.687 31.3403 138.913 30.7906V26.8383C137.792 27.7229 136.453 28.1936 135.033 28.1936C131.52 28.1936 128.665 25.2713 128.665 21.676C128.665 18.0807 131.52 15.1583 135.033 15.1583C138.487 15.1583 141.28 17.9259 141.394 21.458L141.4 21.6002V29.3847L144.749 31.5709V21.6791C144.749 16.1946 140.391 11.7305 135.033 11.7305Z" fill="#219EBC"/>
<path d="M70.4375 14.0557H73.9376V31.6246H70.4375V14.0557Z" fill="#219EBC"/>
<path d="M69.8174 8.37543C69.8174 7.07063 70.839 6.0249 72.1879 6.0249C73.5367 6.0249 74.5583 7.03272 74.5583 8.30276C74.5583 9.64547 73.5737 10.6912 72.1879 10.6912C70.839 10.688 69.8174 9.68022 69.8174 8.37543Z" fill="#219EBC"/>
<path d="M94.5039 14.0557H98.004V31.6246H94.5039V14.0557Z" fill="#219EBC"/>
<path d="M93.8867 8.37543C93.8867 7.07063 94.9084 6.0249 96.2572 6.0249C97.606 6.0249 98.6277 7.03272 98.6277 8.30276C98.6277 9.64547 97.643 10.6912 96.2572 10.6912C94.9053 10.688 93.8867 9.68022 93.8867 8.37543Z" fill="#219EBC"/>
</svg>
