<svg width="30" height="30" viewBox="0 0 30 30" fill="none" xmlns="http://www.w3.org/2000/svg">
<circle cx="15" cy="15" r="15" fill="white"/>
<path d="M15.0007 5.63672C9.83141 5.63672 5.6416 9.82653 5.6416 14.9958C5.6416 20.1651 9.83141 24.3549 15.0007 24.3549C16.4782 24.3549 17.8748 24.0105 19.1179 23.4V20.1745C17.9872 21.0743 16.5578 21.6133 15.0007 21.6133C11.3463 21.6133 8.38325 18.6502 8.38325 14.9958C8.38325 11.3415 11.3463 8.37837 15.0007 8.37837C18.5813 8.37837 21.4963 11.222 21.6123 14.7744L21.6182 14.7674V22.6057L24.3598 24.3538V14.9947C24.3587 9.82653 20.1688 5.63672 15.0007 5.63672Z" fill="#FB8500"/>
<path d="M17.7305 16.6093C18.6216 16.6093 19.3439 15.887 19.3439 14.9959C19.3439 14.1049 18.6216 13.3826 17.7305 13.3826C16.8395 13.3826 16.1172 14.1049 16.1172 14.9959C16.1172 15.887 16.8395 16.6093 17.7305 16.6093Z" fill="#219EBC"/>
<path d="M12.2716 16.6093C13.1626 16.6093 13.8849 15.887 13.8849 14.9959C13.8849 14.1049 13.1626 13.3826 12.2716 13.3826C11.3805 13.3826 10.6582 14.1049 10.6582 14.9959C10.6582 15.887 11.3805 16.6093 12.2716 16.6093Z" fill="#219EBC"/>
</svg>
