<svg width="44" height="54" viewBox="0 0 44 54" fill="none" xmlns="http://www.w3.org/2000/svg">
<path d="M38.293 28.9487L39.7787 29.1555L38.293 28.9487ZM37.6372 33.6613L39.1228 33.8681L37.6372 33.6613ZM6.36284 33.6613L7.84852 33.4546L6.36284 33.6613ZM5.707 28.9487L4.22132 29.1555L5.707 28.9487ZM14.9591 51.3421L14.3759 52.7241L14.9591 51.3421ZM8.18771 43.4008L9.59568 42.8835L8.18771 43.4008ZM35.8123 43.4008L37.2203 43.9181V43.9181L35.8123 43.4008ZM29.0409 51.3421L28.4577 49.9601H28.4577L29.0409 51.3421ZM5.99327 19.3581C5.91492 18.5334 5.18283 17.9284 4.35812 18.0067C3.53341 18.0851 2.92837 18.8172 3.00673 19.6419L5.99327 19.3581ZM40.9933 19.6419C41.0716 18.8172 40.4666 18.0851 39.6419 18.0067C38.8172 17.9284 38.0851 18.5334 38.0067 19.3581L40.9933 19.6419ZM42 16C42.8284 16 43.5 15.3284 43.5 14.5C43.5 13.6716 42.8284 13 42 13V16ZM2 13C1.17157 13 0.5 13.6716 0.5 14.5C0.5 15.3284 1.17157 16 2 16V13ZM15.5 42C15.5 42.8284 16.1716 43.5 17 43.5C17.8284 43.5 18.5 42.8284 18.5 42H15.5ZM18.5 22C18.5 21.1716 17.8284 20.5 17 20.5C16.1716 20.5 15.5 21.1716 15.5 22H18.5ZM25.5 42C25.5 42.8284 26.1716 43.5 27 43.5C27.8284 43.5 28.5 42.8284 28.5 42H25.5ZM28.5 22C28.5 21.1716 27.8284 20.5 27 20.5C26.1716 20.5 25.5 21.1716 25.5 22H28.5ZM32 14.5V16H33.5V14.5H32ZM12 14.5H10.5V16H12V14.5ZM36.8073 28.742L36.1515 33.4545L39.1228 33.8681L39.7787 29.1555L36.8073 28.742ZM7.84852 33.4546L7.19268 28.742L4.22132 29.1555L4.87716 33.8681L7.84852 33.4546ZM22 50.5C18.2108 50.5 16.7545 50.4716 15.5423 49.9601L14.3759 52.7241C16.2819 53.5284 18.4803 53.5 22 53.5V50.5ZM4.87716 33.8681C5.57913 38.9121 5.95453 41.6721 6.77973 43.9181L9.59568 42.8835C8.90952 41.0159 8.57214 38.6541 7.84852 33.4546L4.87716 33.8681ZM15.5423 49.9601C13.1143 48.9355 10.9101 46.461 9.59568 42.8835L6.77973 43.9181C8.29157 48.033 10.9728 51.288 14.3759 52.7241L15.5423 49.9601ZM36.1515 33.4545C35.4279 38.6541 35.0905 41.0159 34.4043 42.8835L37.2203 43.9181C38.0455 41.6721 38.4209 38.9121 39.1228 33.8681L36.1515 33.4545ZM22 53.5C25.5197 53.5 27.7181 53.5284 29.6241 52.7241L28.4577 49.9601C27.2455 50.4716 25.7892 50.5 22 50.5V53.5ZM34.4043 42.8835C33.0899 46.461 30.8857 48.9355 28.4577 49.9601L29.6241 52.7241C33.0272 51.288 35.7084 48.033 37.2203 43.9181L34.4043 42.8835ZM7.19269 28.742C6.63782 24.755 6.22177 21.763 5.99327 19.3581L3.00673 19.6419C3.24284 22.1269 3.67001 25.194 4.22132 29.1555L7.19269 28.742ZM39.7787 29.1555C40.33 25.194 40.7572 22.1269 40.9933 19.6419L38.0067 19.3581C37.7782 21.763 37.3622 24.7549 36.8073 28.742L39.7787 29.1555ZM42 13H2V16H42V13ZM18.5 42V22H15.5V42H18.5ZM28.5 42V22H25.5V42H28.5ZM30.5 12V14.5H33.5V12H30.5ZM32 13H12V16H32V13ZM13.5 14.5V12H10.5V14.5H13.5ZM22 3.5C26.6944 3.5 30.5 7.30558 30.5 12H33.5C33.5 5.64873 28.3513 0.5 22 0.5V3.5ZM22 0.5C15.6487 0.5 10.5 5.64873 10.5 12H13.5C13.5 7.30558 17.3056 3.5 22 3.5V0.5Z" fill="#DA2032"/>
</svg>
